<?xml version="1.0" encoding="UTF-8" standalone="no"?>
<svg
   xmlns:dc="http://purl.org/dc/elements/1.1/"
   xmlns:cc="http://creativecommons.org/ns#"
   xmlns:rdf="http://www.w3.org/1999/02/22-rdf-syntax-ns#"
   xmlns:svg="http://www.w3.org/2000/svg"
   xmlns="http://www.w3.org/2000/svg"
   viewBox="60 20 1920 1200"
   height="1200"
   width="1520"
   xml:space="preserve"
   id="svg2"
   version="1.1"><metadata
     id="metadata8"><rdf:RDF><cc:Work
         rdf:about=""><dc:format>image/svg+xml</dc:format><dc:type
           rdf:resource="http://purl.org/dc/dcmitype/StillImage" /></cc:Work></rdf:RDF></metadata><defs
     id="defs6"><clipPath
       id="clipPath20"
       clipPathUnits="userSpaceOnUse"><path
         id="path18"
         d="M 0,0 H 1440 V 900 H 0 Z" /></clipPath><clipPath
       id="clipPath174"
       clipPathUnits="userSpaceOnUse"><path
         id="path172"
         d="m 494.156,525.175 -9.104,-1.343 c -2.303,-0.34 -3.925,-2.442 -3.671,-4.757 v 0 l 6.596,-59.959 c 0.235,-2.147 1.907,-3.857 4.049,-4.134 v 0 c 9.792,-1.254 36.525,-7.731 43.998,-41.072 v 0 c 0.385,-1.713 0.718,-3.497 0.996,-5.355 v 0 c 0.005,-0.024 0.005,-0.036 0.005,-0.036 v 0 c 0,0 2.403,-34.959 -28.397,-49.464 v 0 c -4.786,-2.256 -9.856,-3.745 -15.022,-4.458 v 0 c -7.416,-1.027 -15.034,-0.46 -22.311,1.719 v 0 c -13.55,4.055 -30.418,14.259 -35.363,39.79 v 0 c -1.379,-16.46 3.117,-36.041 26.996,-47.824 v 0 c 34.422,-11.246 82.606,10.31 82.546,55.175 v 0 c -0.003,2.332 -0.136,4.734 -0.411,7.193 v 0 c -0.294,2.653 -0.711,5.17 -1.239,7.559 v 0 c -7.932,36.04 -40.524,43.075 -48.06,44.228 v 0 c -0.929,0.142 -1.647,0.883 -1.762,1.816 v 0 l -6.63,52.879 c -0.063,0.496 0.279,0.953 0.773,1.037 v 0 l 6.929,1.155 c 1.583,0.263 2.667,1.737 2.446,3.328 v 0 c -0.206,1.483 -1.477,2.555 -2.931,2.555 v 0 c -0.143,0 -0.288,-0.012 -0.433,-0.032" /></clipPath><linearGradient
       id="linearGradient188"
       spreadMethod="pad"
       gradientTransform="matrix(90.37442,22.59361,22.59361,-90.37442,426.5928,419.2957)"
       gradientUnits="userSpaceOnUse"
       y2="0"
       x2="1"
       y1="0"
       x1="0"><stop
         id="stop184"
         offset="0"
         style="stop-opacity:1;stop-color:#196479" /><stop
         id="stop186"
         offset="1"
         style="stop-opacity:1;stop-color:#96c8c7" /></linearGradient><clipPath
       id="clipPath198"
       clipPathUnits="userSpaceOnUse"><path
         id="path196"
         d="m 474.501,438.184 c 0,-5.067 4.107,-9.175 9.174,-9.175 v 0 c 5.067,0 9.175,4.108 9.175,9.175 v 0 c 0,5.067 -4.108,9.175 -9.175,9.175 v 0 c -5.067,0 -9.174,-4.108 -9.174,-9.175" /></clipPath><linearGradient
       id="linearGradient212"
       spreadMethod="pad"
       gradientTransform="matrix(27.1136,-37.51765,-37.51765,-27.1136,477.2304,447.1017)"
       gradientUnits="userSpaceOnUse"
       y2="0"
       x2="1"
       y1="0"
       x1="0"><stop
         id="stop208"
         offset="0"
         style="stop-opacity:1;stop-color:#d3e656" /><stop
         id="stop210"
         offset="1"
         style="stop-opacity:1;stop-color:#43956d" /></linearGradient><clipPath
       id="clipPath222"
       clipPathUnits="userSpaceOnUse"><path
         id="path220"
         d="m 480.124,414.064 c 0,-2.371 1.921,-4.292 4.291,-4.292 v 0 c 2.371,0 4.291,1.921 4.291,4.292 v 0 c 0,2.37 -1.92,4.291 -4.291,4.291 v 0 c -2.37,0 -4.291,-1.921 -4.291,-4.291" /></clipPath><linearGradient
       id="linearGradient236"
       spreadMethod="pad"
       gradientTransform="matrix(-15.13317,-40.98567,-40.98567,15.13317,492.9141,437.0809)"
       gradientUnits="userSpaceOnUse"
       y2="0"
       x2="1"
       y1="0"
       x1="0"><stop
         id="stop232"
         offset="0"
         style="stop-opacity:1;stop-color:#d3e656" /><stop
         id="stop234"
         offset="1"
         style="stop-opacity:1;stop-color:#43956d" /></linearGradient><clipPath
       id="clipPath246"
       clipPathUnits="userSpaceOnUse"><path
         id="path244"
         d="m 517.509,430.5 c -17.516,-1.398 -20.828,-25.134 -36.688,-35.442 v 0 c -2.017,-1.312 -4.239,-2.406 -6.72,-3.21 v 0 c 9.735,2.748 17.933,8.433 27.305,23.002 v 0 c 3.759,5.84 7.625,9.194 10.909,11.117 v 0 c 5.989,3.504 13.656,2.578 18.44,-2.449 v 0 c 3.026,-3.179 4.607,-7.22 5.42,-10.301 v 0 c -0.05,0.233 -0.099,0.464 -0.151,0.693 v 0 c -1.695,6.525 -6.087,16.65 -17.027,16.65 v 0 c -0.483,0 -0.979,-0.02 -1.488,-0.06" /></clipPath><linearGradient
       id="linearGradient260"
       spreadMethod="pad"
       gradientTransform="matrix(41.701,33.21944,33.21944,-41.701,496.3721,399.5941)"
       gradientUnits="userSpaceOnUse"
       y2="0"
       x2="1"
       y1="0"
       x1="0"><stop
         id="stop256"
         offset="0"
         style="stop-opacity:1;stop-color:#d3e656" /><stop
         id="stop258"
         offset="1"
         style="stop-opacity:1;stop-color:#43956d" /></linearGradient><clipPath
       id="clipPath270"
       clipPathUnits="userSpaceOnUse"><path
         id="path268"
         d="m 512.315,425.967 c -3.284,-1.923 -7.15,-5.277 -10.909,-11.117 v 0 c -9.372,-14.569 -17.57,-20.254 -27.305,-23.002 v 0 c -28.909,-10.829 -35.76,10.898 -36.626,14.225 v 0 c -0.693,-3.11 -1.25,-6.467 -1.543,-9.967 v 0 c 0.064,-0.323 0.127,-0.645 0.195,-0.965 v 0 c 0.032,-0.16 0.068,-0.319 0.102,-0.477 v 0 c 0.034,-0.159 0.07,-0.317 0.104,-0.474 v 0 c 0.071,-0.315 0.143,-0.627 0.217,-0.935 v 0 c 0.005,-0.025 0.009,-0.048 0.017,-0.07 v 0 c 0.068,-0.285 0.138,-0.571 0.21,-0.852 v 0 c 0.045,-0.174 0.088,-0.347 0.136,-0.519 v 0 c 0.149,-0.571 0.306,-1.132 0.469,-1.687 v 0 c 0.007,-0.02 0.014,-0.044 0.021,-0.066 v 0 c 0.081,-0.272 0.163,-0.544 0.246,-0.815 v 0 c 0.075,-0.241 0.152,-0.483 0.232,-0.72 v 0 c 0.109,-0.342 0.224,-0.68 0.339,-1.016 v 0 c 0.066,-0.192 0.134,-0.384 0.204,-0.577 v 0 c 0.084,-0.24 0.172,-0.477 0.26,-0.713 v 0 c 0.053,-0.141 0.105,-0.281 0.159,-0.42 v 0 c 0.073,-0.192 0.147,-0.385 0.222,-0.575 v 0 c 0.066,-0.163 0.131,-0.326 0.197,-0.487 v 0 c 0.079,-0.195 0.159,-0.387 0.24,-0.579 v 0 c 0.054,-0.13 0.109,-0.257 0.163,-0.384 v 0 c 0.068,-0.158 0.136,-0.317 0.206,-0.473 v 0 c 0.138,-0.315 0.279,-0.625 0.424,-0.933 v 0 c 0.072,-0.156 0.145,-0.313 0.217,-0.467 v 0 c 0.073,-0.147 0.143,-0.292 0.214,-0.437 v 0 c 0.074,-0.154 0.149,-0.306 0.225,-0.457 v 0 c 0.075,-0.15 0.151,-0.297 0.227,-0.447 v 0 c 0.227,-0.441 0.46,-0.874 0.696,-1.302 v 0 c 0.079,-0.143 0.158,-0.285 0.238,-0.426 v 0 c 0.113,-0.199 0.226,-0.398 0.344,-0.595 v 0 c 0.086,-0.15 0.174,-0.299 0.263,-0.447 v 0 c 0.203,-0.342 0.412,-0.679 0.623,-1.012 v 0 c 0.084,-0.133 0.169,-0.265 0.254,-0.396 v 0 c 0.475,-0.736 0.964,-1.446 1.467,-2.134 v 0 c 0.127,-0.177 0.256,-0.349 0.385,-0.521 v 0 c 0.091,-0.123 0.182,-0.242 0.274,-0.363 v 0 c 0.025,-0.032 0.05,-0.063 0.072,-0.094 v 0 c 0.161,-0.209 0.32,-0.413 0.483,-0.614 v 0 c 0.093,-0.118 0.186,-0.234 0.281,-0.35 v 0 c 0.135,-0.167 0.274,-0.332 0.412,-0.498 v 0 c 0.138,-0.165 0.276,-0.329 0.415,-0.489 v 0 c 0.279,-0.324 0.561,-0.643 0.845,-0.954 v 0 c 0.083,-0.093 0.17,-0.185 0.255,-0.276 v 0 c 0.032,-0.034 0.062,-0.068 0.096,-0.102 v 0 c 0.097,-0.106 0.197,-0.21 0.296,-0.315 v 0 c 0.125,-0.129 0.247,-0.26 0.372,-0.387 v 0 c 0.376,-0.385 0.754,-0.761 1.137,-1.128 v 0 c 0.204,-0.195 0.41,-0.387 0.616,-0.577 v 0 c 0.182,-0.169 0.362,-0.333 0.543,-0.494 v 0 c 0.064,-0.06 0.13,-0.116 0.193,-0.172 v 0 c 0.17,-0.15 0.34,-0.297 0.512,-0.445 v 0 c 0.208,-0.181 0.419,-0.357 0.632,-0.532 v 0 c 0.21,-0.174 0.424,-0.346 0.636,-0.516 v 0 c 0.213,-0.171 0.426,-0.338 0.642,-0.503 v 0 c 0.181,-0.138 0.36,-0.277 0.541,-0.41 v 0 c 0.061,-0.046 0.12,-0.091 0.181,-0.134 v 0 c 0.159,-0.117 0.317,-0.235 0.476,-0.348 v 0 c 0.045,-0.035 0.091,-0.066 0.136,-0.098 v 0 c 0.145,-0.104 0.289,-0.206 0.434,-0.306 v 0 c 0.141,-0.1 0.284,-0.199 0.426,-0.294 v 0 c 0.14,-0.1 0.284,-0.195 0.426,-0.29 v 0 c 0.183,-0.12 0.365,-0.24 0.548,-0.361 v 0 c 0.238,-0.153 0.476,-0.305 0.716,-0.452 v 0 c 0.233,-0.148 0.469,-0.29 0.704,-0.433 v 0 c 0.005,-0.002 0.007,-0.005 0.012,-0.007 v 0 c 0.218,-0.129 0.434,-0.258 0.654,-0.385 v 0 c 0.184,-0.106 0.365,-0.21 0.548,-0.312 v 0 c 0.125,-0.073 0.252,-0.143 0.376,-0.211 v 0 c 0.286,-0.156 0.569,-0.31 0.854,-0.459 v 0 c 0.141,-0.075 0.279,-0.148 0.42,-0.22 v 0 c 0.151,-0.08 0.303,-0.157 0.453,-0.231 v 0 c 0.025,-0.014 0.052,-0.027 0.077,-0.039 v 0 c 0.203,-0.102 0.405,-0.204 0.609,-0.302 v 0 c 0.005,-0.001 0.009,-0.004 0.014,-0.006 v 0 c 0.188,-0.091 0.376,-0.182 0.563,-0.27 v 0 c 0.17,-0.079 0.338,-0.158 0.508,-0.236 v 0 c 0.209,-0.097 0.419,-0.192 0.63,-0.282 v 0 c 0.176,-0.082 0.357,-0.159 0.536,-0.236 v 0 c 0.018,-0.006 0.034,-0.015 0.052,-0.023 v 0 c 0.241,-0.104 0.481,-0.204 0.72,-0.301 v 0 c 0.196,-0.081 0.39,-0.16 0.583,-0.238 v 0 c 0.21,-0.083 0.419,-0.167 0.627,-0.246 v 0 c 0.2,-0.078 0.397,-0.152 0.594,-0.227 v 0 c 0.033,-0.012 0.066,-0.025 0.099,-0.036 v 0 c 0.012,-0.005 0.025,-0.009 0.037,-0.014 v 0 c 0.174,-0.063 0.344,-0.127 0.518,-0.188 v 0 c 0.381,-0.138 0.762,-0.27 1.138,-0.397 v 0 c 0.432,-0.144 0.86,-0.282 1.289,-0.416 v 0 c 0.212,-0.066 0.425,-0.132 0.636,-0.195 v 0 c 12.346,-3.696 25.672,-2.752 37.333,2.739 v 0 c 30.8,14.505 28.397,49.464 28.397,49.464 v 0 c 0,0 0,0.012 -0.005,0.036 v 0 c -0.025,0.157 -0.048,0.311 -0.072,0.464 v 0 c -0.023,0.154 -0.048,0.309 -0.073,0.463 v 0 c -0.025,0.151 -0.049,0.303 -0.074,0.453 v 0 c -0.023,0.136 -0.046,0.272 -0.071,0.407 v 0 c -0.031,0.186 -0.064,0.372 -0.097,0.558 v 0 c -0.004,0.02 -0.009,0.043 -0.012,0.063 v 0 c -0.034,0.181 -0.067,0.362 -0.101,0.544 v 0 c -0.109,0.578 -0.224,1.148 -0.345,1.71 v 0 c -0.813,3.081 -2.394,7.122 -5.42,10.301 v 0 c -2.864,3.009 -6.76,4.549 -10.711,4.549 v 0 c -2.65,-0.001 -5.325,-0.693 -7.729,-2.1" /></clipPath><linearGradient
       id="linearGradient284"
       spreadMethod="pad"
       gradientTransform="matrix(-76.68742,-48.41556,-48.41556,76.68742,528.5505,417.3724)"
       gradientUnits="userSpaceOnUse"
       y2="0"
       x2="1"
       y1="0"
       x1="0"><stop
         id="stop280"
         offset="0"
         style="stop-opacity:1;stop-color:#d3e656" /><stop
         id="stop282"
         offset="1"
         style="stop-opacity:1;stop-color:#43956d" /></linearGradient><clipPath
       id="clipPath294"
       clipPathUnits="userSpaceOnUse"><path
         id="path292"
         d="m 444.513,423.587 c -1.113,-1.081 -1.978,-2.313 -2.646,-3.511 v 0 c -0.641,-1.577 -1.357,-3.471 -2.068,-5.615 v 0 c -0.002,-0.007 -0.002,-0.009 -0.002,-0.009 v 0 c 0.797,-18.789 15.355,-28.742 34.304,-22.604 v 0 c 2.481,0.804 4.703,1.898 6.72,3.21 v 0 c -0.11,0.294 -0.224,0.589 -0.339,0.885 v 0 c -1.52,3.914 -3.375,7.888 -5.482,11.62 v 0 c -5.997,10.648 -14.02,19.371 -22.041,19.371 v 0 c -3.763,0 -6.49,-1.443 -8.446,-3.347" /></clipPath><linearGradient
       id="linearGradient308"
       spreadMethod="pad"
       gradientTransform="matrix(4.594177,-45.23498,-45.23498,-4.594177,457.5542,431.5663)"
       gradientUnits="userSpaceOnUse"
       y2="0"
       x2="1"
       y1="0"
       x1="0"><stop
         id="stop304"
         offset="0"
         style="stop-opacity:1;stop-color:#d3e656" /><stop
         id="stop306"
         offset="1"
         style="stop-opacity:1;stop-color:#43956d" /></linearGradient><clipPath
       id="clipPath318"
       clipPathUnits="userSpaceOnUse"><path
         id="path316"
         d="m 437.475,406.073 c 0.866,-3.327 7.717,-25.054 36.626,-14.225 v 0 c -18.949,-6.138 -33.507,3.815 -34.304,22.604 v 0 c -0.823,-2.488 -1.636,-5.315 -2.322,-8.379" /></clipPath><linearGradient
       id="linearGradient332"
       spreadMethod="pad"
       gradientTransform="matrix(-36.75342,-1.413593,-1.413593,36.75342,474.597,402.5991)"
       gradientUnits="userSpaceOnUse"
       y2="0"
       x2="1"
       y1="0"
       x1="0"><stop
         id="stop328"
         offset="0"
         style="stop-opacity:1;stop-color:#d3e656" /><stop
         id="stop330"
         offset="1"
         style="stop-opacity:1;stop-color:#43956d" /></linearGradient><clipPath
       id="clipPath342"
       clipPathUnits="userSpaceOnUse"><path
         id="path340"
         d="m 494.156,525.175 -9.104,-1.343 c -2.303,-0.34 -3.925,-2.442 -3.671,-4.757 v 0 l 6.596,-59.959 c 0.235,-2.147 1.907,-3.857 4.049,-4.134 v 0 c 9.792,-1.254 36.525,-7.731 43.998,-41.072 v 0 c 0.385,-1.713 0.718,-3.497 0.996,-5.355 v 0 c 0.005,-0.024 0.005,-0.036 0.005,-0.036 v 0 c 0,0 2.403,-34.959 -28.397,-49.464 v 0 c -4.786,-2.256 -9.856,-3.745 -15.022,-4.458 v 0 c 0,0 54.698,5.201 50.291,62.691 v 0 c -0.022,0.308 -0.048,0.615 -0.073,0.921 v 0 c -7.932,36.04 -40.524,43.075 -48.06,44.228 v 0 c -0.929,0.142 -1.647,0.883 -1.762,1.816 v 0 l -6.63,52.879 c -0.063,0.496 0.279,0.953 0.773,1.037 v 0 l 6.929,1.155 c 1.583,0.263 2.667,1.737 2.446,3.328 v 0 c -0.206,1.483 -1.477,2.555 -2.931,2.555 v 0 c -0.143,0 -0.288,-0.012 -0.433,-0.032" /></clipPath><linearGradient
       id="linearGradient356"
       spreadMethod="pad"
       gradientTransform="matrix(-30.79132,117.6913,117.6913,30.79132,517.2211,392.2141)"
       gradientUnits="userSpaceOnUse"
       y2="0"
       x2="1"
       y1="0"
       x1="0"><stop
         id="stop352"
         offset="0"
         style="stop-opacity:1;stop-color:#196479" /><stop
         id="stop354"
         offset="1"
         style="stop-opacity:1;stop-color:#96c8c7" /></linearGradient><clipPath
       id="clipPath366"
       clipPathUnits="userSpaceOnUse"><path
         id="path364"
         d="m 504.244,392.903 c 0,-3.351 2.716,-6.067 6.067,-6.067 v 0 c 3.35,0 6.068,2.716 6.068,6.067 v 0 c 0,3.351 -2.718,6.067 -6.068,6.067 v 0 c -3.351,0 -6.067,-2.716 -6.067,-6.067" /></clipPath><linearGradient
       id="linearGradient380"
       spreadMethod="pad"
       gradientTransform="matrix(39.96606,-54.19127,-54.19127,-39.96606,482.7928,430.2159)"
       gradientUnits="userSpaceOnUse"
       y2="0"
       x2="1"
       y1="0"
       x1="0"><stop
         id="stop376"
         offset="0"
         style="stop-opacity:1;stop-color:#d3e656" /><stop
         id="stop378"
         offset="1"
         style="stop-opacity:1;stop-color:#43956d" /></linearGradient><clipPath
       id="clipPath390"
       clipPathUnits="userSpaceOnUse"><path
         id="path388"
         d="m 461.035,375.007 c 0,-6.047 4.903,-10.951 10.95,-10.951 v 0 c 6.048,0 10.951,4.904 10.951,10.951 v 0 c 0,6.048 -4.903,10.95 -10.951,10.95 v 0 c -6.047,0 -10.95,-4.902 -10.95,-10.95" /></clipPath><linearGradient
       id="linearGradient404"
       spreadMethod="pad"
       gradientTransform="matrix(-32.47326,-34.36491,-34.36491,32.47326,488.5075,392.4916)"
       gradientUnits="userSpaceOnUse"
       y2="0"
       x2="1"
       y1="0"
       x1="0"><stop
         id="stop400"
         offset="0"
         style="stop-opacity:1;stop-color:#d3e656" /><stop
         id="stop402"
         offset="1"
         style="stop-opacity:1;stop-color:#43956d" /></linearGradient><clipPath
       id="clipPath414"
       clipPathUnits="userSpaceOnUse"><path
         id="path412"
         d="m 444.375,510.928 -21.112,-9.903 c -1.033,-0.484 -1.849,-1.35 -2.272,-2.429 v 0 c -8.971,-22.887 -8.789,-50.818 -8.314,-61.592 v 0 c 0.096,-2.173 2.322,-3.557 4.244,-2.638 v 0 l 10.249,4.787 3.657,1.709 24.518,11.454 -1.201,-0.51 c -1.981,-0.839 -4.152,0.739 -4.03,2.933 v 0 c 0.118,2.115 0.287,4.227 0.5,6.327 v 0 c 3.198,31.455 16.37,60.465 16.37,60.465 v 0 z" /></clipPath><linearGradient
       id="linearGradient428"
       spreadMethod="pad"
       gradientTransform="matrix(3.723406,71.63828,70.02464,-4.201412,437.9692,452.0215)"
       gradientUnits="userSpaceOnUse"
       y2="0"
       x2="1"
       y1="0"
       x1="0"><stop
         id="stop424"
         offset="0"
         style="stop-opacity:1;stop-color:#ffe134" /><stop
         id="stop426"
         offset="1"
         style="stop-opacity:1;stop-color:#fe5a1c" /></linearGradient><clipPath
       id="clipPath438"
       clipPathUnits="userSpaceOnUse"><path
         id="path436"
         d="m 470.136,458.426 c -6.133,-1.946 -14.791,-6.11 -14.791,-6.11 v 0 l -12.721,-5.943 -15.454,-7.22 c -11.434,-22.466 -6.337,-46.848 -6.337,-46.848 v 0 c 4.763,-22.779 17.245,-34.365 28.839,-40.258 v 0 c 12.315,-6.259 23.631,-6.094 23.631,-6.094 v 0 c -14.109,4.677 -28.475,15.578 -31.216,37.348 v 0 c -4.696,37.33 21.67,67.01 28.638,74.129 v 0 c 0.387,0.392 0.078,1.025 -0.407,1.025 v 0 c -0.058,0 -0.119,-0.009 -0.182,-0.029" /></clipPath><linearGradient
       id="linearGradient452"
       spreadMethod="pad"
       gradientTransform="matrix(-21.79722,112.5217,109.8363,21.69253,462.2949,340.2941)"
       gradientUnits="userSpaceOnUse"
       y2="0"
       x2="1"
       y1="0"
       x1="0"><stop
         id="stop448"
         offset="0"
         style="stop-opacity:1;stop-color:#ffe134" /><stop
         id="stop450"
         offset="1"
         style="stop-opacity:1;stop-color:#fe5a1c" /></linearGradient><clipPath
       id="clipPath462"
       clipPathUnits="userSpaceOnUse"><path
         id="path460"
         d="m 450.614,461.066 c -0.213,-2.1 -0.382,-4.212 -0.5,-6.327 v 0 c -0.122,-2.194 2.049,-3.772 4.03,-2.933 v 0 l 1.201,0.51 c 0,0 8.658,4.164 14.791,6.11 v 0 c 0.583,0.185 1.022,-0.556 0.589,-0.996 v 0 c -0.096,-0.1 -0.2,-0.205 -0.306,-0.313 v 0 c -0.534,-0.554 -1.165,-1.222 -1.873,-1.997 v 0 c -0.127,-0.14 -0.259,-0.284 -0.392,-0.432 v 0 c -0.146,-0.16 -0.293,-0.325 -0.443,-0.494 v 0 c -0.149,-0.169 -0.304,-0.344 -0.459,-0.52 v 0 c -0.077,-0.087 -0.156,-0.177 -0.234,-0.267 v 0 c -0.158,-0.18 -0.32,-0.366 -0.482,-0.556 v 0 h -0.002 c -0.325,-0.38 -0.662,-0.774 -1.004,-1.181 v 0 c -0.172,-0.207 -0.346,-0.414 -0.522,-0.628 v 0 c -0.186,-0.227 -0.376,-0.458 -0.57,-0.695 v 0 c -0.077,-0.096 -0.155,-0.192 -0.233,-0.289 v 0 c -0.18,-0.225 -0.365,-0.453 -0.548,-0.684 v 0 c -0.006,-0.008 -0.011,-0.014 -0.017,-0.019 v 0 c -0.135,-0.169 -0.268,-0.339 -0.402,-0.511 v 0 c -0.139,-0.179 -0.282,-0.36 -0.423,-0.541 v 0 c -0.094,-0.122 -0.191,-0.244 -0.285,-0.368 v 0 c -0.096,-0.123 -0.193,-0.247 -0.288,-0.374 v 0 c -1.009,-1.318 -2.054,-2.742 -3.11,-4.261 v 0 c -0.218,-0.309 -0.434,-0.625 -0.652,-0.943 v 0 c -0.13,-0.191 -0.262,-0.386 -0.393,-0.58 v 0 c -0.099,-0.144 -0.196,-0.293 -0.294,-0.44 v 0 c -0.392,-0.587 -0.786,-1.188 -1.177,-1.803 v 0 c -0.106,-0.162 -0.211,-0.326 -0.314,-0.491 v 0 c -0.134,-0.211 -0.268,-0.425 -0.402,-0.639 v 0 c -0.082,-0.134 -0.167,-0.268 -0.249,-0.404 v 0 c -0.102,-0.163 -0.202,-0.326 -0.304,-0.492 v 0 c -0.122,-0.201 -0.245,-0.403 -0.367,-0.605 v 0 c -0.006,-0.007 -0.009,-0.016 -0.015,-0.023 v 0 c -0.172,-0.292 -0.349,-0.584 -0.524,-0.879 v 0 c -0.125,-0.215 -0.248,-0.427 -0.373,-0.64 v 0 c -0.125,-0.216 -0.25,-0.431 -0.373,-0.649 v 0 c -0.248,-0.433 -0.497,-0.872 -0.742,-1.318 v 0 c -0.098,-0.178 -0.196,-0.356 -0.294,-0.536 v 0 c -0.146,-0.269 -0.293,-0.538 -0.439,-0.81 v 0 c -0.129,-0.244 -0.26,-0.49 -0.389,-0.736 v 0 c -0.014,-0.029 -0.029,-0.056 -0.045,-0.086 v 0 c -0.14,-0.266 -0.279,-0.537 -0.419,-0.807 v 0 c -0.015,-0.03 -0.03,-0.06 -0.046,-0.089 v 0 c -0.13,-0.257 -0.261,-0.516 -0.391,-0.777 v 0 c -0.188,-0.376 -0.376,-0.755 -0.561,-1.136 v 0 c -0.079,-0.163 -0.157,-0.324 -0.233,-0.487 v 0 c -0.108,-0.222 -0.213,-0.443 -0.317,-0.667 v 0 c -0.183,-0.389 -0.364,-0.78 -0.542,-1.172 v 0 c -0.09,-0.197 -0.177,-0.393 -0.267,-0.592 v 0 c -0.087,-0.198 -0.175,-0.396 -0.262,-0.596 v 0 c -0.185,-0.42 -0.367,-0.843 -0.547,-1.269 v 0 c -0.16,-0.383 -0.32,-0.769 -0.477,-1.155 v 0 c -0.082,-0.206 -0.165,-0.41 -0.248,-0.617 v 0 c -0.064,-0.161 -0.126,-0.322 -0.191,-0.483 v 0 c -0.15,-0.383 -0.296,-0.77 -0.443,-1.159 v 0 c -0.113,-0.295 -0.221,-0.594 -0.33,-0.894 v 0 c -0.036,-0.1 -0.073,-0.2 -0.109,-0.3 v 0 c -0.036,-0.101 -0.075,-0.204 -0.109,-0.304 v 0 c -0.152,-0.426 -0.301,-0.856 -0.448,-1.288 v 0 c -0.074,-0.216 -0.147,-0.432 -0.217,-0.648 v 0 c -0.144,-0.434 -0.285,-0.872 -0.421,-1.311 v 0 c -0.045,-0.139 -0.089,-0.28 -0.131,-0.419 v 0 c -0.057,-0.179 -0.111,-0.359 -0.165,-0.54 v 0 c -0.071,-0.233 -0.139,-0.466 -0.208,-0.7 v 0 c -0.031,-0.111 -0.064,-0.222 -0.095,-0.332 v 0 c -0.006,-0.022 -0.013,-0.047 -0.019,-0.068 v 0 c -0.057,-0.193 -0.11,-0.385 -0.165,-0.581 v 0 c -0.098,-0.354 -0.194,-0.711 -0.288,-1.069 v 0 c -0.019,-0.068 -0.038,-0.138 -0.057,-0.209 v 0 c -0.085,-0.329 -0.169,-0.659 -0.249,-0.991 v 0 c -0.007,-0.018 -0.011,-0.035 -0.015,-0.053 v 0 c -0.009,-0.031 -0.016,-0.062 -0.022,-0.095 v 0 c -0.194,-0.779 -0.375,-1.567 -0.546,-2.361 v 0 c -0.043,-0.198 -0.085,-0.397 -0.125,-0.594 v 0 c -0.038,-0.175 -0.074,-0.348 -0.108,-0.523 v 0 c -0.037,-0.181 -0.072,-0.365 -0.107,-0.549 v 0 c -0.029,-0.144 -0.056,-0.288 -0.081,-0.431 v 0 c -0.043,-0.222 -0.084,-0.445 -0.124,-0.67 v 0 c -0.045,-0.255 -0.088,-0.512 -0.132,-0.77 v 0 c -0.037,-0.228 -0.076,-0.458 -0.112,-0.686 v 0 c -0.008,-0.05 -0.015,-0.098 -0.023,-0.148 v 0 c -0.032,-0.202 -0.063,-0.405 -0.093,-0.609 v 0 c -0.039,-0.261 -0.077,-0.522 -0.113,-0.785 v 0 c -0.061,-0.446 -0.118,-0.89 -0.172,-1.338 v 0 c -0.022,-0.183 -0.043,-0.365 -0.063,-0.548 v 0 c -0.016,-0.137 -0.031,-0.276 -0.046,-0.412 v 0 c -0.021,-0.195 -0.041,-0.388 -0.06,-0.582 v 0 c -0.002,-0.043 -0.008,-0.088 -0.011,-0.131 v 0 c -0.018,-0.173 -0.033,-0.344 -0.049,-0.517 v 0 c -0.012,-0.128 -0.023,-0.251 -0.032,-0.378 v 0 -0.002 c -0.006,-0.044 -0.009,-0.085 -0.013,-0.128 v 0 c -10e-4,-0.028 -0.004,-0.054 -0.007,-0.082 v 0 c -0.011,-0.134 -0.021,-0.27 -0.03,-0.405 v 0 c -0.014,-0.16 -0.025,-0.319 -0.036,-0.481 v 0 c -0.019,-0.246 -0.034,-0.493 -0.049,-0.741 v 0 c -0.015,-0.249 -0.029,-0.499 -0.04,-0.749 v 0 c -0.014,-0.274 -0.025,-0.549 -0.037,-0.827 v 0 c -0.01,-0.22 -0.017,-0.443 -0.023,-0.667 v 0 c 0,-0.063 -0.003,-0.128 -0.004,-0.192 v 0 c -0.007,-0.243 -0.013,-0.483 -0.016,-0.725 v 0 c -10e-4,-0.026 0,-0.051 -10e-4,-0.077 v 0 c -0.008,-0.556 -0.011,-1.112 -0.007,-1.676 v 0 c -10e-4,-0.032 0.001,-0.066 0.001,-0.098 v 0 c 10e-4,-0.026 0,-0.051 10e-4,-0.077 v 0 c 0.002,-0.207 0.006,-0.414 0.009,-0.621 v 0 c 0.005,-0.296 0.013,-0.593 0.022,-0.89 v 0 c 0.009,-0.254 0.018,-0.507 0.029,-0.76 v 0 l 0.003,-0.09 c 0.01,-0.244 0.022,-0.489 0.036,-0.733 v 0 c 0.003,-0.081 0.009,-0.162 0.014,-0.242 v 0 c 0.013,-0.245 0.027,-0.488 0.045,-0.732 v 0 c 0.017,-0.269 0.038,-0.539 0.059,-0.808 v 0 c 0.003,-0.044 0.006,-0.089 0.011,-0.135 v 0 c 0.018,-0.239 0.04,-0.478 0.061,-0.72 v 0 c 0.005,-0.053 0.008,-0.103 0.015,-0.156 v 0 c 0.021,-0.224 0.044,-0.448 0.067,-0.672 v 0 c 0.008,-0.086 0.018,-0.171 0.026,-0.257 v 0 c 0.025,-0.224 0.048,-0.448 0.074,-0.672 v 0 c 0.026,-0.221 0.052,-0.447 0.08,-0.67 v 0 c 2.741,-21.77 17.107,-32.671 31.216,-37.348 v 0 c -22.986,8.438 -29.199,26.19 -29.731,41.659 v 0 c -0.114,3.289 0.028,6.473 0.321,9.441 v 0 c 0.291,2.926 0.723,5.643 1.201,8.046 v 0 c 0,0 0,0.002 0.001,0.008 v 0 c 0.414,2.073 0.859,3.911 1.271,5.447 v 0 c 0.441,1.643 0.844,2.94 1.131,3.81 v 0 c 0.266,0.804 0.429,1.238 0.429,1.238 v 0 c 3.986,12.582 18.089,30.715 27.668,42.08 v 0 c 2.286,2.713 -0.501,6.772 -3.778,5.503 v 0 l -16.932,-6.563 c -0.247,-0.095 -0.511,0.109 -0.488,0.379 v 0 c 2.463,29.447 13.997,54.38 16.778,60.028 v 0 c 0.339,0.69 0.122,1.532 -0.506,1.965 v 0 l -3.684,2.537 c 0,0 -13.172,-29.01 -16.37,-60.465" /></clipPath><linearGradient
       id="linearGradient476"
       spreadMethod="pad"
       gradientTransform="matrix(71.7289,145.8804,142.9446,-74.20148,439.1074,370.6221)"
       gradientUnits="userSpaceOnUse"
       y2="0"
       x2="1"
       y1="0"
       x1="0"><stop
         id="stop472"
         offset="0"
         style="stop-opacity:1;stop-color:#ffe134" /><stop
         id="stop474"
         offset="1"
         style="stop-opacity:1;stop-color:#fe5a1c" /></linearGradient><clipPath
       id="clipPath486"
       clipPathUnits="userSpaceOnUse"><path
         id="path484"
         d="m 427.17,439.153 c -11.434,-22.466 -6.337,-46.848 -6.337,-46.848 v 0 c 4.763,-22.779 17.245,-34.365 28.839,-40.258 v 0 c -8.152,6.705 -15.752,16.314 -19.605,29.972 v 0 c -10.017,35.495 9.93,61.175 12.557,64.354 v 0 z" /></clipPath><linearGradient
       id="linearGradient500"
       spreadMethod="pad"
       gradientTransform="matrix(13.83696,104.6652,102.3534,-14.73158,431.3259,356.3029)"
       gradientUnits="userSpaceOnUse"
       y2="0"
       x2="1"
       y1="0"
       x1="0"><stop
         id="stop496"
         offset="0"
         style="stop-opacity:1;stop-color:#ffe134" /><stop
         id="stop498"
         offset="1"
         style="stop-opacity:1;stop-color:#fe5a1c" /></linearGradient><clipPath
       id="clipPath510"
       clipPathUnits="userSpaceOnUse"><path
         id="path508"
         d="m 423.263,501.025 c -1.033,-0.484 -1.849,-1.35 -2.272,-2.429 v 0 c -8.971,-22.887 -8.789,-50.818 -8.314,-61.592 v 0 c 0.096,-2.173 2.322,-3.557 4.244,-2.638 v 0 l 10.249,4.787 3.657,1.709 c -0.116,1.801 -3.14,50.798 13.548,70.066 v 0 z" /></clipPath><linearGradient
       id="linearGradient524"
       spreadMethod="pad"
       gradientTransform="matrix(27.13932,102.935,100.7354,-28.3354,412.0381,418.3792)"
       gradientUnits="userSpaceOnUse"
       y2="0"
       x2="1"
       y1="0"
       x1="0"><stop
         id="stop520"
         offset="0"
         style="stop-opacity:1;stop-color:#ffe134" /><stop
         id="stop522"
         offset="1"
         style="stop-opacity:1;stop-color:#fe5a1c" /></linearGradient></defs><g
     transform="matrix(1.3333333,0,0,-1.3333333,0,1200)"
     id="g10"><g
       id="g12" /><g
       id="g14"><g
         clip-path="url(#clipPath20)"
         id="g16"><text
           id="text24"
           style="font-variant:normal;font-weight:900;font-size:21px;font-family:Avenir;-inkscape-font-specification:Avenir-Black;writing-mode:lr-tb;fill:#939598;fill-opacity:1;fill-rule:nonzero;stroke:none"
           transform="matrix(1,0,0,-1,25.8516,865.3711)"><tspan
             id="tspan22"
             y="0"
             x="0 15.939 28.749001 37.296001 42.756001 52.479 65.289001 77.343002 85.889999 97.167 102.627 108.843 114.303 127.113 140.343">Horisontal logo</tspan></text>
<path
           id="path26"
           style="fill:#bcbec0;fill-opacity:1;fill-rule:nonzero;stroke:none"
           d="m 15.3399,14.5931 h 0.944 c 1.055,0 1.6,0.63 1.6,1.966 0,1.298 -0.519,1.961 -1.6,1.961 h -0.944 z m 0.981,4.509 c 1.481,0 2.238,-0.872 2.238,-2.543 0,-1.668 -0.761,-2.548 -2.238,-2.548 h -1.634 v 5.091 z" /><path
           id="path28"
           style="fill:#bcbec0;fill-opacity:1;fill-rule:nonzero;stroke:none"
           d="m 22.6573,16.3313 v 0.011 c 0,0.623 -0.384,1.115 -0.97,1.115 -0.597,0 -0.977,-0.495 -0.977,-1.115 v -0.011 z m -2.589,-0.548 v 0.439 c 0,1.034 0.586,1.773 1.616,1.773 1.025,0 1.615,-0.739 1.615,-1.817 v -0.365 h -2.589 v -0.071 c 0,-0.746 0.38,-1.257 1.018,-1.257 0.455,0 0.754,0.227 0.881,0.593 h 0.637 c -0.149,-0.649 -0.667,-1.13 -1.533,-1.13 -1.022,0 -1.645,0.719 -1.645,1.835" /><path
           id="path30"
           style="fill:#bcbec0;fill-opacity:1;fill-rule:nonzero;stroke:none"
           d="m 26.3227,17.9948 c 0.921,0 1.395,-0.525 1.395,-1.175 h -0.597 c -0.022,0.298 -0.209,0.65 -0.82,0.65 -0.467,0 -0.802,-0.206 -0.802,-0.594 0,-0.44 0.518,-0.534 0.966,-0.615 0.735,-0.131 1.354,-0.328 1.354,-1.093 0,-0.78 -0.631,-1.219 -1.552,-1.219 -0.862,0 -1.462,0.413 -1.462,1.119 h 0.627 c 0.056,-0.358 0.361,-0.594 0.884,-0.594 0.6,0 0.872,0.283 0.872,0.615 0,0.444 -0.436,0.531 -0.984,0.638 -0.731,0.149 -1.332,0.373 -1.332,1.082 0,0.828 0.698,1.186 1.451,1.186" /><path
           id="path32"
           style="fill:#bcbec0;fill-opacity:1;fill-rule:nonzero;stroke:none"
           d="m 29.534,17.932 h 0.642 v -3.921 h -0.642 z m 0.32,1.353 c 0.228,0 0.414,-0.179 0.414,-0.41 0,-0.227 -0.186,-0.406 -0.414,-0.406 -0.227,0 -0.41,0.179 -0.41,0.406 0,0.231 0.183,0.41 0.41,0.41" /><path
           id="path34"
           style="fill:#bcbec0;fill-opacity:1;fill-rule:nonzero;stroke:none"
           d="m 32.6097,16.1416 v -0.243 c 0,-0.813 0.388,-1.302 1.048,-1.302 0.642,0 1.015,0.492 1.015,1.302 v 0.243 c 0,0.794 -0.396,1.298 -1.015,1.298 -0.66,0 -1.048,-0.471 -1.048,-1.298 m 2.063,-2.052 v 0.578 h -0.019 c -0.157,-0.34 -0.586,-0.619 -1.119,-0.619 -0.914,0 -1.567,0.642 -1.567,1.816 v 0.325 c 0,1.152 0.646,1.802 1.567,1.802 0.533,0 0.959,-0.28 1.141,-0.612 h 0.019 v 0.552 h 0.619 v -3.849 c 0,-1.004 -0.779,-1.507 -1.667,-1.507 -0.996,0 -1.503,0.493 -1.593,1.145 h 0.657 c 0.071,-0.318 0.403,-0.608 0.94,-0.608 0.619,0 1.022,0.362 1.022,0.977" /><path
           id="path36"
           style="fill:#bcbec0;fill-opacity:1;fill-rule:nonzero;stroke:none"
           d="m 37.2305,17.9319 h 0.638 v -0.519 h 0.018 c 0.146,0.25 0.508,0.582 1.146,0.582 0.805,0 1.406,-0.515 1.406,-1.47 v -2.514 h -0.642 v 2.406 c 0,0.66 -0.388,0.996 -0.958,0.996 -0.676,0 -0.966,-0.477 -0.966,-1.015 v -2.387 h -0.642 z" /><path
           id="path38"
           style="fill:#bcbec0;fill-opacity:1;fill-rule:nonzero;stroke:none"
           d="m 44.7158,16.3313 v 0.011 c 0,0.623 -0.384,1.115 -0.97,1.115 -0.597,0 -0.977,-0.495 -0.977,-1.115 v -0.011 z m -2.589,-0.548 v 0.439 c 0,1.034 0.586,1.773 1.616,1.773 1.025,0 1.615,-0.739 1.615,-1.817 v -0.365 h -2.589 v -0.071 c 0,-0.746 0.38,-1.257 1.018,-1.257 0.455,0 0.754,0.227 0.881,0.593 h 0.637 c -0.149,-0.649 -0.667,-1.13 -1.533,-1.13 -1.022,0 -1.645,0.719 -1.645,1.835" /><path
           id="path40"
           style="fill:#bcbec0;fill-opacity:1;fill-rule:nonzero;stroke:none"
           d="m 47.5793,16.1266 v -0.31 c 0,-0.873 0.429,-1.306 1.022,-1.306 0.656,0 1.056,0.47 1.056,1.303 v 0.313 c 0,0.791 -0.407,1.304 -1.067,1.304 -0.582,0 -1.011,-0.432 -1.011,-1.304 m 2.048,1.26 h 0.018 v 1.984 h 0.642 v -5.359 h -0.616 v 0.589 h -0.014 c -0.221,-0.403 -0.631,-0.649 -1.157,-0.649 -1.022,0 -1.566,0.749 -1.566,1.843 v 0.353 c 0,1.068 0.578,1.844 1.566,1.844 0.519,0 0.929,-0.258 1.127,-0.605" /><path
           id="path42"
           style="fill:#bcbec0;fill-opacity:1;fill-rule:nonzero;stroke:none"
           d="m 57.2306,15.8165 v 0.31 c 0,0.846 -0.41,1.305 -0.996,1.305 -0.682,0 -1.093,-0.454 -1.093,-1.305 v -0.303 c 0,-0.85 0.407,-1.317 1.093,-1.317 0.589,0 0.996,0.471 0.996,1.31 m -2.089,-1.216 h -0.018 v -0.589 h -0.616 v 5.359 h 0.642 v -1.976 h 0.018 c 0.202,0.339 0.657,0.597 1.153,0.597 0.914,0 1.555,-0.65 1.555,-1.829 v -0.379 c 0,-1.134 -0.619,-1.835 -1.563,-1.835 -0.559,0 -0.939,0.249 -1.171,0.652" /><path
           id="path44"
           style="fill:#bcbec0;fill-opacity:1;fill-rule:nonzero;stroke:none"
           d="m 61.2098,13.9931 -0.101,-0.273 c -0.306,-0.831 -0.69,-1.085 -1.35,-1.085 -0.119,0 -0.254,0.011 -0.362,0.033 v 0.523 c 0.064,-0.008 0.187,-0.015 0.284,-0.015 0.447,0 0.66,0.152 0.772,0.567 l 0.06,0.212 -1.444,3.977 h 0.712 l 1.06,-3.208 h 0.022 l 1.063,3.208 h 0.683 c -0.038,-0.128 -1.395,-3.936 -1.399,-3.939" /><path
           id="path46"
           style="fill:#bcbec0;fill-opacity:1;fill-rule:nonzero;stroke:none"
           d="m 66.9075,14.0113 h -0.642 v 5.359 h 0.642 v -3.173 h 0.026 l 1.563,1.735 h 0.794 l -1.548,-1.705 1.645,-2.216 h -0.787 l -1.331,1.808 -0.362,-0.394 z" /><path
           id="path48"
           style="fill:#bcbec0;fill-opacity:1;fill-rule:nonzero;stroke:none"
           d="m 72.8188,15.3125 v 0.456 h -0.985 c -0.537,0 -0.768,-0.254 -0.768,-0.608 0,-0.463 0.384,-0.679 0.794,-0.679 0.549,0 0.959,0.343 0.959,0.831 m -1.13,-1.364 c -0.757,0 -1.28,0.469 -1.28,1.189 0,0.687 0.478,1.119 1.377,1.123 h 1.033 v 0.399 c 0,0.515 -0.298,0.798 -0.828,0.798 -0.504,0 -0.791,-0.257 -0.828,-0.649 h -0.604 c 0.041,0.687 0.507,1.186 1.454,1.186 0.836,0 1.444,-0.455 1.444,-1.28 v -2.703 h -0.616 v 0.489 h -0.018 c -0.198,-0.318 -0.556,-0.552 -1.134,-0.552" /><path
           id="path50"
           style="fill:#bcbec0;fill-opacity:1;fill-rule:nonzero;stroke:none"
           d="m 76.6185,17.9948 c 0.921,0 1.395,-0.525 1.395,-1.175 h -0.597 c -0.022,0.298 -0.209,0.65 -0.82,0.65 -0.467,0 -0.802,-0.206 -0.802,-0.594 0,-0.44 0.518,-0.534 0.966,-0.615 0.735,-0.131 1.354,-0.328 1.354,-1.093 0,-0.78 -0.631,-1.219 -1.552,-1.219 -0.862,0 -1.462,0.413 -1.462,1.119 h 0.627 c 0.056,-0.358 0.361,-0.594 0.884,-0.594 0.6,0 0.872,0.283 0.872,0.615 0,0.444 -0.436,0.531 -0.984,0.638 -0.731,0.149 -1.332,0.373 -1.332,1.082 0,0.828 0.698,1.186 1.451,1.186" /><path
           id="path52"
           style="fill:#bcbec0;fill-opacity:1;fill-rule:nonzero;stroke:none"
           d="m 81.0826,17.9948 c 0.921,0 1.395,-0.525 1.395,-1.175 h -0.597 c -0.022,0.298 -0.209,0.65 -0.82,0.65 -0.467,0 -0.802,-0.206 -0.802,-0.594 0,-0.44 0.518,-0.534 0.966,-0.615 0.735,-0.131 1.354,-0.328 1.354,-1.093 0,-0.78 -0.631,-1.219 -1.552,-1.219 -0.862,0 -1.462,0.413 -1.462,1.119 h 0.627 c 0.056,-0.358 0.361,-0.594 0.884,-0.594 0.6,0 0.872,0.283 0.872,0.615 0,0.444 -0.436,0.531 -0.984,0.638 -0.731,0.149 -1.332,0.373 -1.332,1.082 0,0.828 0.698,1.186 1.451,1.186" /><path
           id="path54"
           style="fill:#bcbec0;fill-opacity:1;fill-rule:nonzero;stroke:none"
           d="m 84.7411,16.1298 v -0.306 c 0,-0.798 0.369,-1.32 1.044,-1.32 0.672,0 1.037,0.519 1.037,1.32 v 0.306 c 0,0.802 -0.365,1.316 -1.037,1.316 -0.675,0 -1.044,-0.514 -1.044,-1.316 m 2.723,0.022 v -0.35 c 0,-1.063 -0.578,-1.853 -1.679,-1.853 -1.1,0 -1.686,0.79 -1.686,1.853 v 0.35 c 0,1.049 0.59,1.843 1.686,1.843 1.097,0 1.679,-0.794 1.679,-1.843" /><path
           id="path56"
           style="fill:#bcbec0;fill-opacity:1;fill-rule:nonzero;stroke:none"
           d="m 92.3415,14.0113 h -0.638 v 0.515 h -0.026 c -0.138,-0.309 -0.507,-0.578 -1.134,-0.578 -0.809,0 -1.387,0.463 -1.387,1.361 v 2.623 h 0.645 v -2.441 c 0,-0.731 0.421,-0.965 0.936,-0.965 0.563,0 0.959,0.354 0.959,0.977 v 2.429 h 0.645 z" /><path
           id="path58"
           style="fill:#bcbec0;fill-opacity:1;fill-rule:nonzero;stroke:none"
           d="m 93.572,13.12 h 3.349 v 0.507 h -3.349 z" /><path
           id="path60"
           style="fill:#bcbec0;fill-opacity:1;fill-rule:nonzero;stroke:none"
           d="m 98.8448,14.5931 h 0.944 c 1.055,0 1.6,0.63 1.6,1.966 0,1.298 -0.519,1.961 -1.6,1.961 h -0.944 z m 0.981,4.509 c 1.481,0 2.238,-0.872 2.238,-2.543 0,-1.668 -0.761,-2.548 -2.238,-2.548 h -1.634 v 5.091 z" /><path
           id="path62"
           style="fill:#bcbec0;fill-opacity:1;fill-rule:nonzero;stroke:none"
           d="m 106.1622,16.3313 v 0.011 c 0,0.623 -0.384,1.115 -0.97,1.115 -0.597,0 -0.977,-0.495 -0.977,-1.115 v -0.011 z m -2.589,-0.548 v 0.439 c 0,1.034 0.586,1.773 1.616,1.773 1.025,0 1.615,-0.739 1.615,-1.817 v -0.365 h -2.589 v -0.071 c 0,-0.746 0.38,-1.257 1.018,-1.257 0.455,0 0.754,0.227 0.881,0.593 h 0.637 c -0.149,-0.649 -0.667,-1.13 -1.533,-1.13 -1.022,0 -1.645,0.719 -1.645,1.835" /><path
           id="path64"
           style="fill:#bcbec0;fill-opacity:1;fill-rule:nonzero;stroke:none"
           d="m 109.8282,17.9948 c 0.921,0 1.395,-0.525 1.395,-1.175 h -0.597 c -0.022,0.298 -0.209,0.65 -0.82,0.65 -0.467,0 -0.802,-0.206 -0.802,-0.594 0,-0.44 0.518,-0.534 0.966,-0.615 0.735,-0.131 1.354,-0.328 1.354,-1.093 0,-0.78 -0.631,-1.219 -1.552,-1.219 -0.862,0 -1.462,0.413 -1.462,1.119 h 0.627 c 0.056,-0.358 0.361,-0.594 0.884,-0.594 0.6,0 0.872,0.283 0.872,0.615 0,0.444 -0.436,0.531 -0.984,0.638 -0.731,0.149 -1.332,0.373 -1.332,1.082 0,0.828 0.698,1.186 1.451,1.186" /><path
           id="path66"
           style="fill:#bcbec0;fill-opacity:1;fill-rule:nonzero;stroke:none"
           d="m 113.039,17.932 h 0.642 v -3.921 h -0.642 z m 0.32,1.353 c 0.228,0 0.414,-0.179 0.414,-0.41 0,-0.227 -0.186,-0.406 -0.414,-0.406 -0.227,0 -0.41,0.179 -0.41,0.406 0,0.231 0.183,0.41 0.41,0.41" /><path
           id="path68"
           style="fill:#bcbec0;fill-opacity:1;fill-rule:nonzero;stroke:none"
           d="m 116.1151,16.1416 v -0.243 c 0,-0.813 0.388,-1.302 1.048,-1.302 0.642,0 1.015,0.492 1.015,1.302 v 0.243 c 0,0.794 -0.396,1.298 -1.015,1.298 -0.66,0 -1.048,-0.471 -1.048,-1.298 m 2.063,-2.052 v 0.578 h -0.019 c -0.157,-0.34 -0.586,-0.619 -1.119,-0.619 -0.914,0 -1.567,0.642 -1.567,1.816 v 0.325 c 0,1.152 0.646,1.802 1.567,1.802 0.533,0 0.959,-0.28 1.141,-0.612 h 0.019 v 0.552 h 0.619 v -3.849 c 0,-1.004 -0.779,-1.507 -1.667,-1.507 -0.996,0 -1.503,0.493 -1.593,1.145 h 0.657 c 0.071,-0.318 0.403,-0.608 0.94,-0.608 0.619,0 1.022,0.362 1.022,0.977" /><path
           id="path70"
           style="fill:#bcbec0;fill-opacity:1;fill-rule:nonzero;stroke:none"
           d="m 120.7354,17.9319 h 0.638 v -0.519 h 0.018 c 0.146,0.25 0.508,0.582 1.146,0.582 0.805,0 1.406,-0.515 1.406,-1.47 v -2.514 h -0.642 v 2.406 c 0,0.66 -0.388,0.996 -0.958,0.996 -0.676,0 -0.966,-0.477 -0.966,-1.015 v -2.387 h -0.642 z" /><path
           id="path72"
           style="fill:#bcbec0;fill-opacity:1;fill-rule:nonzero;stroke:none"
           d="m 128.567,16.1298 v -0.306 c 0,-0.798 0.369,-1.32 1.044,-1.32 0.672,0 1.037,0.519 1.037,1.32 v 0.306 c 0,0.802 -0.365,1.316 -1.037,1.316 -0.675,0 -1.044,-0.514 -1.044,-1.316 m 2.723,0.022 v -0.35 c 0,-1.063 -0.578,-1.853 -1.679,-1.853 -1.1,0 -1.686,0.79 -1.686,1.853 v 0.35 c 0,1.049 0.59,1.843 1.686,1.843 1.097,0 1.679,-0.794 1.679,-1.843" /><path
           id="path74"
           style="fill:#bcbec0;fill-opacity:1;fill-rule:nonzero;stroke:none"
           d="m 133.0418,17.9319 h 0.638 v -0.519 h 0.018 c 0.146,0.25 0.508,0.582 1.146,0.582 0.805,0 1.406,-0.515 1.406,-1.47 v -2.514 h -0.642 v 2.406 c 0,0.66 -0.388,0.996 -0.958,0.996 -0.676,0 -0.966,-0.477 -0.966,-1.015 v -2.387 h -0.642 z" /><path
           id="path76"
           style="fill:#bcbec0;fill-opacity:1;fill-rule:nonzero;stroke:none"
           d="m 140.4291,14.0113 v 5.091 h 3.006 v -0.582 h -2.353 v -1.731 h 2.159 v -0.582 h -2.159 v -2.196 z" /><path
           id="path78"
           style="fill:#bcbec0;fill-opacity:1;fill-rule:nonzero;stroke:none"
           d="m 145.027,17.932 h 0.642 v -3.921 h -0.642 z m 0.321,1.353 c 0.228,0 0.414,-0.179 0.414,-0.41 0,-0.227 -0.186,-0.406 -0.414,-0.406 -0.227,0 -0.41,0.179 -0.41,0.406 0,0.231 0.183,0.41 0.41,0.41" /><path
           id="path80"
           style="fill:#bcbec0;fill-opacity:1;fill-rule:nonzero;stroke:none"
           d="m 147.1343,17.9319 h 0.679 l 1.022,-3.148 h 0.022 l 1.097,3.148 h 0.649 l -1.406,-3.921 h -0.69 z" /><path
           id="path82"
           style="fill:#bcbec0;fill-opacity:1;fill-rule:nonzero;stroke:none"
           d="m 154.3767,16.3313 v 0.011 c 0,0.623 -0.384,1.115 -0.97,1.115 -0.597,0 -0.977,-0.495 -0.977,-1.115 v -0.011 z m -2.589,-0.548 v 0.439 c 0,1.034 0.586,1.773 1.616,1.773 1.025,0 1.615,-0.739 1.615,-1.817 v -0.365 h -2.589 v -0.071 c 0,-0.746 0.38,-1.257 1.018,-1.257 0.455,0 0.754,0.227 0.881,0.593 h 0.637 c -0.149,-0.649 -0.667,-1.13 -1.533,-1.13 -1.022,0 -1.645,0.719 -1.645,1.835" /><path
           id="path84"
           style="fill:#bcbec0;fill-opacity:1;fill-rule:nonzero;stroke:none"
           d="m 156.7521,17.9319 h 0.642 v -0.482 h 0.018 c 0.116,0.235 0.41,0.542 0.966,0.542 0.082,0 0.164,-0.009 0.243,-0.02 v -0.586 c -0.067,0.012 -0.194,0.015 -0.314,0.015 -0.693,0 -0.91,-0.432 -0.91,-0.961 v -2.429 h -0.645 z" /><path
           id="path86"
           style="fill:#bcbec0;fill-opacity:1;fill-rule:nonzero;stroke:none"
           d="m 160.2422,17.9319 h 0.642 v -0.482 h 0.018 c 0.116,0.235 0.41,0.542 0.966,0.542 0.083,0 0.164,-0.009 0.243,-0.02 v -0.586 c -0.067,0.012 -0.194,0.015 -0.314,0.015 -0.693,0 -0.91,-0.432 -0.91,-0.961 v -2.429 h -0.645 z" /><path
           id="path88"
           style="fill:#bcbec0;fill-opacity:1;fill-rule:nonzero;stroke:none"
           d="m 170.191,15.814 h 2.35 v 0.573 h -2.35 z" /><path
           id="path90"
           style="fill:#bcbec0;fill-opacity:1;fill-rule:nonzero;stroke:none"
           d="m 187.0754,14.0113 h -0.663 l -0.895,3.021 h -0.015 l -0.892,-3.021 h -0.668 l -1.021,3.921 h 0.648 l 0.72,-3.1 h 0.03 l 0.885,3.1 h 0.611 l 0.887,-3.1 h 0.03 l 0.72,3.1 h 0.649 z" /><path
           id="path92"
           style="fill:#bcbec0;fill-opacity:1;fill-rule:nonzero;stroke:none"
           d="m 193.5398,14.0113 h -0.665 l -0.895,3.021 h -0.015 l -0.891,-3.021 h -0.667 l -1.023,3.921 h 0.65 l 0.719,-3.1 h 0.03 l 0.884,3.1 h 0.611 l 0.889,-3.1 h 0.03 l 0.719,3.1 h 0.649 z" /><path
           id="path94"
           style="fill:#bcbec0;fill-opacity:1;fill-rule:nonzero;stroke:none"
           d="m 200.002,14.0113 h -0.663 l -0.895,3.021 h -0.015 l -0.892,-3.021 h -0.668 l -1.021,3.921 h 0.648 l 0.72,-3.1 h 0.03 l 0.885,3.1 h 0.611 l 0.887,-3.1 h 0.03 l 0.72,3.1 h 0.649 z" /><path
           id="path96"
           style="fill:#bcbec0;fill-opacity:1;fill-rule:nonzero;stroke:none"
           d="m 202.3764,14.802 c 0.239,0 0.433,-0.194 0.433,-0.433 0,-0.235 -0.194,-0.429 -0.433,-0.429 -0.234,0 -0.428,0.194 -0.428,0.429 0,0.239 0.194,0.433 0.428,0.433" /><path
           id="path98"
           style="fill:#bcbec0;fill-opacity:1;fill-rule:nonzero;stroke:none"
           d="m 204.5354,17.3948 h -0.529 v 0.537 h 0.529 v 0.391 c 0,0.749 0.377,1.097 1.183,1.097 0.13,0 0.219,-0.011 0.288,-0.023 v -0.525 c -0.057,0.006 -0.105,0.015 -0.203,0.015 -0.424,0 -0.63,-0.139 -0.63,-0.616 v -0.339 h 0.773 v -0.537 h -0.769 v -3.384 h -0.642 z" /><path
           id="path100"
           style="fill:#bcbec0;fill-opacity:1;fill-rule:nonzero;stroke:none"
           d="m 207.69,17.932 h 0.642 v -3.921 h -0.642 z m 0.322,1.353 c 0.227,0 0.413,-0.179 0.413,-0.41 0,-0.227 -0.186,-0.406 -0.413,-0.406 -0.228,0 -0.412,0.179 -0.412,0.406 0,0.231 0.184,0.41 0.412,0.41" /><path
           id="path102"
           style="fill:#bcbec0;fill-opacity:1;fill-rule:nonzero;stroke:none"
           d="m 209.7967,17.9319 h 0.679 l 1.022,-3.148 h 0.022 l 1.097,3.148 h 0.649 l -1.407,-3.921 h -0.689 z" /><path
           id="path104"
           style="fill:#bcbec0;fill-opacity:1;fill-rule:nonzero;stroke:none"
           d="m 217.0401,16.3313 v 0.011 c 0,0.623 -0.385,1.115 -0.97,1.115 -0.597,0 -0.978,-0.495 -0.978,-1.115 v -0.011 z m -2.59,-0.548 v 0.439 c 0,1.034 0.587,1.773 1.616,1.773 1.025,0 1.616,-0.739 1.616,-1.817 v -0.365 h -2.59 v -0.071 c 0,-0.746 0.381,-1.257 1.019,-1.257 0.455,0 0.753,0.227 0.88,0.593 h 0.637 c -0.149,-0.649 -0.667,-1.13 -1.532,-1.13 -1.022,0 -1.646,0.719 -1.646,1.835" /><path
           id="path106"
           style="fill:#bcbec0;fill-opacity:1;fill-rule:nonzero;stroke:none"
           d="m 219.4144,17.9319 h 0.642 v -0.482 h 0.019 c 0.115,0.235 0.41,0.542 0.965,0.542 0.083,0 0.164,-0.009 0.243,-0.02 v -0.586 c -0.067,0.012 -0.194,0.015 -0.313,0.015 -0.694,0 -0.91,-0.432 -0.91,-0.961 v -2.429 h -0.646 z" /><path
           id="path108"
           style="fill:#bcbec0;fill-opacity:1;fill-rule:nonzero;stroke:none"
           d="m 222.9056,17.9319 h 0.642 v -0.482 h 0.018 c 0.116,0.235 0.41,0.542 0.966,0.542 0.081,0 0.164,-0.009 0.242,-0.02 v -0.586 c -0.067,0.012 -0.194,0.015 -0.313,0.015 -0.694,0 -0.91,-0.432 -0.91,-0.961 v -2.429 h -0.645 z" /><path
           id="path110"
           style="fill:#bcbec0;fill-opacity:1;fill-rule:nonzero;stroke:none"
           d="m 226.0781,14.802 c 0.239,0 0.433,-0.194 0.433,-0.433 0,-0.235 -0.194,-0.429 -0.433,-0.429 -0.236,0 -0.429,0.194 -0.429,0.429 0,0.239 0.193,0.433 0.429,0.433" /><path
           id="path112"
           style="fill:#bcbec0;fill-opacity:1;fill-rule:nonzero;stroke:none"
           d="m 228.1508,16.1821 c 0,1.055 0.603,1.813 1.626,1.813 0.906,0 1.458,-0.6 1.492,-1.201 h -0.631 c -0.085,0.332 -0.395,0.634 -0.82,0.634 -0.649,0 -1.025,-0.481 -1.025,-1.272 v -0.366 c 0,-0.767 0.402,-1.275 1.029,-1.275 0.488,0 0.776,0.26 0.846,0.574 h 0.631 c -0.131,-0.672 -0.623,-1.141 -1.522,-1.141 -1.041,0 -1.626,0.802 -1.626,1.846 z" /><path
           id="path114"
           style="fill:#bcbec0;fill-opacity:1;fill-rule:nonzero;stroke:none"
           d="m 233.443,16.1298 v -0.306 c 0,-0.798 0.37,-1.32 1.044,-1.32 0.672,0 1.038,0.519 1.038,1.32 v 0.306 c 0,0.802 -0.366,1.316 -1.038,1.316 -0.674,0 -1.044,-0.514 -1.044,-1.316 m 2.724,0.022 v -0.35 c 0,-1.063 -0.579,-1.853 -1.68,-1.853 -1.099,0 -1.686,0.79 -1.686,1.853 v 0.35 c 0,1.049 0.591,1.843 1.686,1.843 1.098,0 1.68,-0.794 1.68,-1.843" /><path
           id="path116"
           style="fill:#bcbec0;fill-opacity:1;fill-rule:nonzero;stroke:none"
           d="m 237.9189,17.9319 h 0.638 v -0.482 h 0.033 c 0.128,0.269 0.475,0.545 0.994,0.545 0.611,0 0.976,-0.246 1.129,-0.63 h 0.03 c 0.149,0.335 0.563,0.63 1.201,0.63 0.828,0 1.316,-0.511 1.316,-1.316 v -2.668 h -0.637 v 2.537 c 0,0.499 -0.288,0.868 -0.846,0.868 -0.557,0 -0.866,-0.383 -0.866,-0.928 v -2.477 h -0.638 v 2.477 c 0,0.6 -0.321,0.928 -0.854,0.928 -0.481,0 -0.858,-0.328 -0.858,-0.921 v -2.484 h -0.642 z" /><path
           id="path118"
           style="fill:#bcbec0;fill-opacity:1;fill-rule:nonzero;stroke:none"
           d="m 244.6134,12.8593 1.835,6.511 h 0.593 l -1.835,-6.511 z" /><path
           id="path120"
           style="fill:#bcbec0;fill-opacity:1;fill-rule:nonzero;stroke:none"
           d="m 249.0658,14.0113 h -0.642 v 5.359 h 0.642 v -3.173 h 0.026 l 1.563,1.735 h 0.794 l -1.548,-1.705 1.646,-2.216 h -0.788 l -1.331,1.808 -0.362,-0.394 z" /><path
           id="path122"
           style="fill:#bcbec0;fill-opacity:1;fill-rule:nonzero;stroke:none"
           d="m 254.9761,15.3125 v 0.456 h -0.985 c -0.537,0 -0.767,-0.254 -0.767,-0.608 0,-0.463 0.384,-0.679 0.794,-0.679 0.549,0 0.958,0.343 0.958,0.831 m -1.13,-1.364 c -0.756,0 -1.278,0.469 -1.278,1.189 0,0.687 0.477,1.119 1.375,1.123 h 1.033 v 0.399 c 0,0.515 -0.298,0.798 -0.827,0.798 -0.504,0 -0.791,-0.257 -0.829,-0.649 h -0.603 c 0.04,0.687 0.507,1.186 1.453,1.186 0.836,0 1.444,-0.455 1.444,-1.28 v -2.703 h -0.615 v 0.489 h -0.019 c -0.198,-0.318 -0.556,-0.552 -1.134,-0.552" /><path
           id="path124"
           style="fill:#bcbec0;fill-opacity:1;fill-rule:nonzero;stroke:none"
           d="m 258.7763,17.9948 c 0.922,0 1.396,-0.525 1.396,-1.175 h -0.597 c -0.023,0.298 -0.209,0.65 -0.82,0.65 -0.467,0 -0.803,-0.206 -0.803,-0.594 0,-0.44 0.519,-0.534 0.967,-0.615 0.734,-0.131 1.353,-0.328 1.353,-1.093 0,-0.78 -0.631,-1.219 -1.551,-1.219 -0.862,0 -1.463,0.413 -1.463,1.119 h 0.627 c 0.055,-0.358 0.362,-0.594 0.885,-0.594 0.6,0 0.871,0.283 0.871,0.615 0,0.444 -0.436,0.531 -0.984,0.638 -0.731,0.149 -1.331,0.373 -1.331,1.082 0,0.828 0.698,1.186 1.45,1.186" /><path
           id="path126"
           style="fill:#bcbec0;fill-opacity:1;fill-rule:nonzero;stroke:none"
           d="m 263.2415,17.9948 c 0.921,0 1.394,-0.525 1.394,-1.175 h -0.597 c -0.021,0.298 -0.209,0.65 -0.82,0.65 -0.466,0 -0.802,-0.206 -0.802,-0.594 0,-0.44 0.518,-0.534 0.966,-0.615 0.735,-0.131 1.354,-0.328 1.354,-1.093 0,-0.78 -0.63,-1.219 -1.551,-1.219 -0.863,0 -1.463,0.413 -1.463,1.119 h 0.627 c 0.056,-0.358 0.361,-0.594 0.883,-0.594 0.601,0 0.874,0.283 0.874,0.615 0,0.444 -0.437,0.531 -0.984,0.638 -0.731,0.149 -1.332,0.373 -1.332,1.082 0,0.828 0.696,1.186 1.451,1.186" /><path
           id="path128"
           style="fill:#bcbec0;fill-opacity:1;fill-rule:nonzero;stroke:none"
           d="m 266.8989,16.1298 v -0.306 c 0,-0.798 0.37,-1.32 1.044,-1.32 0.672,0 1.038,0.519 1.038,1.32 v 0.306 c 0,0.802 -0.366,1.316 -1.038,1.316 -0.674,0 -1.044,-0.514 -1.044,-1.316 m 2.724,0.022 v -0.35 c 0,-1.063 -0.579,-1.853 -1.68,-1.853 -1.099,0 -1.686,0.79 -1.686,1.853 v 0.35 c 0,1.049 0.591,1.843 1.686,1.843 1.098,0 1.68,-0.794 1.68,-1.843" /><path
           id="path130"
           style="fill:#bcbec0;fill-opacity:1;fill-rule:nonzero;stroke:none"
           d="m 274.4993,14.0113 h -0.638 v 0.515 h -0.027 c -0.137,-0.309 -0.507,-0.578 -1.134,-0.578 -0.809,0 -1.387,0.463 -1.387,1.361 v 2.623 h 0.645 v -2.441 c 0,-0.731 0.422,-0.965 0.936,-0.965 0.564,0 0.959,0.354 0.959,0.977 v 2.429 h 0.646 z" /><path
           id="path132"
           style="fill:#bcbec0;fill-opacity:1;fill-rule:nonzero;stroke:none"
           d="m 275.729,13.12 h 3.349 v 0.507 h -3.349 z" /><path
           id="path134"
           style="fill:#bcbec0;fill-opacity:1;fill-rule:nonzero;stroke:none"
           d="m 280.5182,16.1266 v -0.31 c 0,-0.873 0.428,-1.306 1.022,-1.306 0.656,0 1.056,0.47 1.056,1.303 v 0.313 c 0,0.791 -0.407,1.304 -1.068,1.304 -0.582,0 -1.01,-0.432 -1.01,-1.304 m 2.048,1.26 h 0.018 v 1.984 h 0.642 v -5.359 h -0.615 v 0.589 h -0.015 c -0.221,-0.403 -0.631,-0.649 -1.157,-0.649 -1.021,0 -1.567,0.749 -1.567,1.843 v 0.353 c 0,1.068 0.579,1.844 1.567,1.844 0.519,0 0.929,-0.258 1.127,-0.605" /><path
           id="path136"
           style="fill:#bcbec0;fill-opacity:1;fill-rule:nonzero;stroke:none"
           d="m 287.573,16.3313 v 0.011 c 0,0.623 -0.384,1.115 -0.97,1.115 -0.597,0 -0.976,-0.495 -0.976,-1.115 v -0.011 z m -2.587,-0.548 v 0.439 c 0,1.034 0.585,1.773 1.614,1.773 1.026,0 1.615,-0.739 1.615,-1.817 v -0.365 h -2.588 v -0.071 c 0,-0.746 0.379,-1.257 1.018,-1.257 0.455,0 0.753,0.227 0.88,0.593 h 0.638 c -0.149,-0.649 -0.668,-1.13 -1.533,-1.13 -1.022,0 -1.644,0.719 -1.644,1.835" /><path
           id="path138"
           style="fill:#bcbec0;fill-opacity:1;fill-rule:nonzero;stroke:none"
           d="m 291.239,17.9948 c 0.922,0 1.396,-0.525 1.396,-1.175 h -0.597 c -0.023,0.298 -0.209,0.65 -0.82,0.65 -0.467,0 -0.803,-0.206 -0.803,-0.594 0,-0.44 0.519,-0.534 0.967,-0.615 0.734,-0.131 1.353,-0.328 1.353,-1.093 0,-0.78 -0.631,-1.219 -1.551,-1.219 -0.861,0 -1.463,0.413 -1.463,1.119 h 0.627 c 0.056,-0.358 0.362,-0.594 0.885,-0.594 0.6,0 0.871,0.283 0.871,0.615 0,0.444 -0.436,0.531 -0.984,0.638 -0.731,0.149 -1.331,0.373 -1.331,1.082 0,0.828 0.698,1.186 1.45,1.186" /><path
           id="path140"
           style="fill:#bcbec0;fill-opacity:1;fill-rule:nonzero;stroke:none"
           d="m 294.449,17.932 h 0.642 v -3.921 h -0.642 z m 0.322,1.353 c 0.227,0 0.413,-0.179 0.413,-0.41 0,-0.227 -0.186,-0.406 -0.413,-0.406 -0.228,0 -0.412,0.179 -0.412,0.406 0,0.231 0.184,0.41 0.412,0.41" /><path
           id="path142"
           style="fill:#bcbec0;fill-opacity:1;fill-rule:nonzero;stroke:none"
           d="m 297.5254,16.1416 v -0.243 c 0,-0.813 0.388,-1.302 1.048,-1.302 0.641,0 1.014,0.492 1.014,1.302 v 0.243 c 0,0.794 -0.394,1.298 -1.014,1.298 -0.66,0 -1.048,-0.471 -1.048,-1.298 m 2.062,-2.052 v 0.578 h -0.018 c -0.157,-0.34 -0.585,-0.619 -1.119,-0.619 -0.913,0 -1.567,0.642 -1.567,1.816 v 0.325 c 0,1.152 0.645,1.802 1.567,1.802 0.534,0 0.958,-0.28 1.141,-0.612 h 0.02 v 0.552 h 0.618 v -3.849 c 0,-1.004 -0.779,-1.507 -1.667,-1.507 -0.995,0 -1.503,0.493 -1.592,1.145 h 0.656 c 0.071,-0.318 0.403,-0.608 0.94,-0.608 0.618,0 1.021,0.362 1.021,0.977" /><path
           id="path144"
           style="fill:#bcbec0;fill-opacity:1;fill-rule:nonzero;stroke:none"
           d="m 302.1472,17.9319 h 0.637 v -0.519 h 0.019 c 0.145,0.25 0.508,0.582 1.145,0.582 0.806,0 1.407,-0.515 1.407,-1.47 v -2.514 h -0.642 v 2.406 c 0,0.66 -0.388,0.996 -0.959,0.996 -0.676,0 -0.965,-0.477 -0.965,-1.015 v -2.387 h -0.642 z" /><path
           id="path146"
           style="fill:#0d3a2e;fill-opacity:1;fill-rule:nonzero;stroke:none"
           d="m 630.0091,403.8827 c 0,-1.974 -0.691,-3.649 -2.071,-5.029 -1.382,-1.382 -3.058,-2.072 -5.03,-2.072 h -20.71 v 14.371 h 16.568 4.142 c 1.972,0 3.648,-0.691 5.03,-2.072 1.38,-1.381 2.071,-3.057 2.071,-5.029 z m -27.811,31.783 h 16.568 c 1.972,0 3.648,-0.69 5.03,-2.071 1.38,-1.381 2.071,-3.058 2.071,-5.029 v -0.169 c 0,-1.974 -0.691,-3.65 -2.071,-5.03 -1.382,-1.381 -3.058,-2.071 -5.03,-2.071 h -16.568 z m 30.516,-17.413 c 1.014,1.408 1.817,2.972 2.409,4.692 0.592,1.717 0.887,3.535 0.887,5.452 v 0.169 c 0,2.367 -0.451,4.592 -1.352,6.677 -0.902,2.084 -2.128,3.916 -3.677,5.494 -1.551,1.578 -3.381,2.818 -5.494,3.72 -2.114,0.901 -4.354,1.353 -6.721,1.353 h -26.711 v -24.514 -10.143 -24.514 h 5.944 4.199 20.71 c 2.367,0 4.593,0.45 6.678,1.352 2.084,0.901 3.916,2.126 5.495,3.677 1.576,1.55 2.817,3.382 3.719,5.495 0.901,2.113 1.353,4.353 1.353,6.72 v 0.169 c 0,2.93 -0.677,5.635 -2.029,8.115 -1.353,2.479 -3.157,4.508 -5.41,6.086" /><path
           id="path148"
           style="fill:#0d3a2e;fill-opacity:1;fill-rule:nonzero;stroke:none"
           d="m 655.6214,412.8427 c 0.562,1.296 1.38,2.479 2.451,3.551 2.479,2.366 5.353,3.55 8.622,3.55 3.382,0 6.256,-1.184 8.622,-3.55 1.07,-1.072 1.888,-2.255 2.452,-3.551 z m 26.88,10.735 c -2.028,2.029 -4.395,3.62 -7.1,4.777 -2.705,1.154 -5.608,1.732 -8.707,1.732 -3.099,0 -6.001,-0.578 -8.706,-1.732 -2.705,-1.157 -5.072,-2.748 -7.101,-4.777 -2.028,-2.028 -3.621,-4.395 -4.776,-7.1 -1.156,-2.705 -1.733,-5.608 -1.733,-8.706 0,-3.043 0.577,-5.917 1.733,-8.622 1.155,-2.705 2.748,-5.073 4.776,-7.101 2.029,-2.029 4.396,-3.622 7.101,-4.776 2.705,-1.155 5.607,-1.733 8.706,-1.733 3.382,0 6.509,0.663 9.383,1.987 2.874,1.323 5.326,3.17 7.354,5.536 l -10.566,4.226 c -1.804,-1.07 -3.861,-1.605 -6.171,-1.605 -1.635,0 -3.184,0.296 -4.649,0.888 -1.466,0.591 -2.789,1.478 -3.973,2.662 -1.071,1.014 -1.889,2.169 -2.451,3.465 h 22.147 10.65 c 0.394,1.578 0.592,3.268 0.592,5.073 0,3.098 -0.578,6.001 -1.733,8.706 -1.156,2.705 -2.747,5.072 -4.776,7.1" /><path
           id="path150"
           style="fill:#0d3a2e;fill-opacity:1;fill-rule:nonzero;stroke:none"
           d="m 710.0164,396.5712 c -1.494,0.592 -2.804,1.479 -3.931,2.662 -2.366,2.367 -3.55,5.212 -3.55,8.538 0,3.381 1.184,6.255 3.55,8.622 1.127,1.126 2.437,1.999 3.931,2.62 1.493,0.62 3.056,0.93 4.691,0.93 3.382,0 6.256,-1.184 8.622,-3.55 2.367,-2.367 3.551,-5.241 3.551,-8.622 v -12.088 h -12.173 c -1.635,0 -3.198,0.296 -4.691,0.888 m 16.864,29.035 c -1.635,1.296 -3.523,2.367 -5.664,3.213 -2.142,0.845 -4.594,1.268 -7.354,1.268 -3.099,0 -5.959,-0.578 -8.579,-1.733 -2.621,-1.156 -4.89,-2.748 -6.805,-4.776 -1.917,-2.028 -3.41,-4.396 -4.48,-7.101 -1.071,-2.705 -1.607,-5.607 -1.607,-8.706 0,-3.043 0.536,-5.917 1.607,-8.622 1.07,-2.705 2.563,-5.072 4.48,-7.1 1.915,-2.03 4.184,-3.623 6.805,-4.777 2.62,-1.154 5.48,-1.732 8.579,-1.732 h 23.234 v 1.098 9.049 33.301 h -10.216 z" /><path
           id="path152"
           style="fill:#0d3a2e;fill-opacity:1;fill-rule:nonzero;stroke:none"
           d="m 986.1211,396.5712 c -1.494,0.592 -2.804,1.479 -3.931,2.662 -2.366,2.367 -3.55,5.212 -3.55,8.538 0,3.381 1.184,6.255 3.55,8.622 1.127,1.126 2.437,1.999 3.931,2.62 1.493,0.62 3.056,0.93 4.691,0.93 3.382,0 6.256,-1.184 8.622,-3.55 2.3669,-2.367 3.5509,-5.241 3.5509,-8.622 v -12.088 h -12.1729 c -1.635,0 -3.198,0.296 -4.691,0.888 m 16.8639,29.035 c -1.635,1.296 -3.5229,2.367 -5.6639,3.213 -2.142,0.845 -4.594,1.268 -7.354,1.268 -3.099,0 -5.959,-0.578 -8.579,-1.733 -2.621,-1.156 -4.89,-2.748 -6.805,-4.776 -1.917,-2.028 -3.41,-4.396 -4.48,-7.101 -1.071,-2.705 -1.607,-5.607 -1.607,-8.706 0,-3.043 0.536,-5.917 1.607,-8.622 1.07,-2.705 2.563,-5.072 4.48,-7.1 1.915,-2.03 4.184,-3.623 6.805,-4.777 2.62,-1.154 5.48,-1.732 8.579,-1.732 h 23.2339 v 1.098 9.049 33.301 h -10.216 z" /><path
           id="path154"
           style="fill:#0d3a2e;fill-opacity:1;fill-rule:nonzero;stroke:none"
           d="m 1050.222,399.2333 c -1.127,-1.184 -2.437,-2.07 -3.931,-2.662 -1.492,-0.592 -3.056,-0.888 -4.691,-0.888 h -12.172 v 12.088 c 0,3.381 1.183,6.255 3.55,8.622 2.367,2.366 5.241,3.55 8.622,3.55 1.635,0 3.199,-0.311 4.691,-0.93 1.494,-0.621 2.804,-1.494 3.931,-2.62 2.367,-2.367 3.55,-5.241 3.55,-8.622 0,-3.326 -1.183,-6.171 -3.55,-8.538 m 7.607,24.345 c -1.915,2.028 -4.184,3.62 -6.804,4.776 -2.62,1.154 -5.48,1.733 -8.58,1.733 -2.76,0 -5.212,-0.423 -7.354,-1.268 -2.141,-0.846 -4.028,-1.917 -5.663,-3.213 v 19.86 h -10.217 v -49.779 -9.049 -1.098 h 23.234 c 3.1,0 5.96,0.578 8.58,1.732 2.62,1.154 4.889,2.747 6.804,4.776 1.917,2.029 3.411,4.396 4.48,7.101 1.072,2.705 1.607,5.579 1.607,8.622 0,3.099 -0.535,6.001 -1.607,8.706 -1.069,2.705 -2.563,5.072 -4.48,7.101" /><path
           id="path156"
           style="fill:#0d3a2e;fill-opacity:1;fill-rule:nonzero;stroke:none"
           d="m 798.3924,425.0155 c -1.128,1.576 -2.578,2.816 -4.354,3.719 -1.774,0.901 -3.846,1.352 -6.212,1.352 -2.874,0 -5.524,-0.55 -7.946,-1.648 -2.424,-1.099 -4.396,-2.466 -5.917,-4.1 -1.297,1.803 -2.762,3.212 -4.396,4.227 -1.635,1.014 -3.719,1.521 -6.255,1.521 -1.859,0 -3.691,-0.465 -5.494,-1.394 -1.804,-0.93 -3.523,-2.101 -5.156,-3.508 v 3.719 h -10.144 v -42.265 h 10.144 v 26.12 c 0,1.972 0.703,3.662 2.112,5.071 1.353,1.409 3.071,2.114 5.157,2.114 0.958,0 1.873,-0.169 2.747,-0.507 0.873,-0.339 1.649,-0.875 2.325,-1.607 1.408,-1.409 2.113,-3.099 2.113,-5.071 v -26.12 h 10.144 v 26.12 c 0,1.972 0.703,3.662 2.113,5.071 1.352,1.409 3.043,2.114 5.072,2.114 2.028,0 3.719,-0.705 5.072,-2.114 1.407,-1.409 2.112,-3.099 2.112,-5.071 v -26.12 h 10.144 v 26.12 c 0,2.422 -0.282,4.677 -0.845,6.762 -0.564,2.084 -1.41,3.916 -2.536,5.495" /><path
           id="path158"
           style="fill:#0d3a2e;fill-opacity:1;fill-rule:nonzero;stroke:none"
           d="m 845.222,403.8827 c 0,-1.974 -0.691,-3.649 -2.071,-5.029 -1.382,-1.382 -3.058,-2.072 -5.03,-2.072 h -20.71 v 14.371 h 16.568 4.142 c 1.972,0 3.648,-0.691 5.03,-2.072 1.38,-1.381 2.071,-3.057 2.071,-5.029 z m -27.811,31.783 h 16.568 c 1.972,0 3.648,-0.69 5.03,-2.071 1.38,-1.381 2.071,-3.058 2.071,-5.029 v -0.169 c 0,-1.974 -0.691,-3.65 -2.071,-5.03 -1.382,-1.381 -3.058,-2.071 -5.03,-2.071 h -16.568 z m 30.516,-17.413 c 1.014,1.408 1.817,2.972 2.409,4.692 0.592,1.717 0.887,3.535 0.887,5.452 v 0.169 c 0,2.367 -0.451,4.592 -1.352,6.677 -0.902,2.084 -2.128,3.916 -3.677,5.494 -1.551,1.578 -3.381,2.818 -5.494,3.72 -2.114,0.901 -4.354,1.353 -6.721,1.353 h -26.711 v -24.514 -10.143 -24.514 h 5.157 4.986 20.71 c 2.367,0 4.593,0.45 6.678,1.352 2.084,0.901 3.916,2.126 5.495,3.677 1.576,1.55 2.817,3.382 3.719,5.495 0.901,2.113 1.353,4.353 1.353,6.72 v 0.169 c 0,2.93 -0.677,5.635 -2.029,8.115 -1.353,2.479 -3.157,4.508 -5.41,6.086" /><path
           id="path160"
           style="fill:#0d3a2e;fill-opacity:1;fill-rule:nonzero;stroke:none"
           d="m 890.5296,399.2333 c -1.183,-1.184 -2.508,-2.07 -3.973,-2.662 -1.466,-0.592 -3.015,-0.888 -4.649,-0.888 -1.635,0 -3.199,0.296 -4.691,0.888 -1.494,0.592 -2.804,1.478 -3.931,2.662 -2.367,2.367 -3.55,5.212 -3.55,8.538 0,3.381 1.183,6.255 3.55,8.622 2.367,2.366 5.241,3.55 8.622,3.55 3.268,0 6.142,-1.184 8.622,-3.55 2.367,-2.367 3.55,-5.241 3.55,-8.622 0,-3.326 -1.183,-6.171 -3.55,-8.538 m 7.185,24.345 c -2.029,2.028 -4.395,3.62 -7.101,4.776 -2.704,1.154 -5.607,1.733 -8.706,1.733 -3.1,0 -6.002,-0.579 -8.707,-1.733 -2.705,-1.156 -5.071,-2.748 -7.1,-4.776 -2.029,-2.029 -3.622,-4.396 -4.776,-7.101 -1.156,-2.705 -1.733,-5.607 -1.733,-8.706 0,-3.043 0.577,-5.917 1.733,-8.622 1.154,-2.705 2.747,-5.072 4.776,-7.101 2.029,-2.029 4.395,-3.622 7.1,-4.776 2.705,-1.154 5.607,-1.732 8.707,-1.732 3.099,0 6.002,0.578 8.706,1.732 2.706,1.154 5.072,2.747 7.101,4.776 2.029,2.029 3.62,4.396 4.776,7.101 1.154,2.705 1.733,5.579 1.733,8.622 0,3.099 -0.579,6.001 -1.733,8.706 -1.156,2.705 -2.747,5.072 -4.776,7.101" /><path
           id="path162"
           style="fill:#0d3a2e;fill-opacity:1;fill-rule:nonzero;stroke:none"
           d="m 921.8904,396.7821 c -1.014,0 -1.889,0.366 -2.621,1.099 -0.733,0.732 -1.098,1.633 -1.098,2.705 v 13.102 h 8.453 l -2.536,10.144 h -5.917 v 16.144 l -10.144,-2.535 v -36.855 c 0,-1.916 0.366,-3.719 1.099,-5.41 0.732,-1.691 1.719,-3.17 2.959,-4.438 1.239,-1.268 2.704,-2.269 4.395,-3.001 1.691,-0.732 3.493,-1.099 5.41,-1.099 h 9.298 l -2.536,10.144 z" /><path
           id="path164"
           style="fill:#0d3a2e;fill-opacity:1;fill-rule:nonzero;stroke:none"
           d="m 944.7132,445.7245 h -10.144 v -48.942 -10.144 h 10.144 23.246 v 10.144 h -23.246 z" /><path
           id="path166"
           style="fill:#0d3a2e;fill-opacity:1;fill-rule:nonzero;stroke:none"
           d="m 1096.275,404.9814 c -1.24,1.634 -2.691,3.001 -4.353,4.1 -1.663,1.099 -3.284,1.958 -4.86,2.578 -1.579,0.62 -2.705,1.014 -3.382,1.183 -0.676,0.169 -1.424,0.367 -2.24,0.592 -0.817,0.225 -1.593,0.493 -2.324,0.803 -0.734,0.309 -1.353,0.704 -1.86,1.183 -0.507,0.479 -0.761,1.057 -0.761,1.734 0,1.238 0.577,2.14 1.733,2.704 1.154,0.563 2.325,0.846 3.508,0.846 1.521,0 2.958,-0.338 4.311,-1.015 1.353,-0.676 2.591,-1.747 3.719,-3.212 l 7.101,7.101 c -1.014,1.183 -2.255,2.253 -3.719,3.212 -1.297,0.789 -2.946,1.521 -4.945,2.198 -2.001,0.676 -4.438,1.014 -7.312,1.014 -1.86,0 -3.664,-0.268 -5.41,-0.803 -1.748,-0.536 -3.297,-1.367 -4.649,-2.493 -1.353,-1.128 -2.438,-2.551 -3.255,-4.269 -0.817,-1.72 -1.225,-3.762 -1.225,-6.129 0,-2.311 0.619,-4.283 1.859,-5.917 1.239,-1.635 2.69,-2.987 4.354,-4.057 1.661,-1.072 3.296,-1.889 4.902,-2.452 1.606,-0.564 2.747,-0.959 3.424,-1.183 0.507,-0.169 1.154,-0.353 1.944,-0.55 0.789,-0.197 1.564,-0.465 2.324,-0.803 0.762,-0.338 1.423,-0.761 1.987,-1.267 0.563,-0.508 0.845,-1.099 0.845,-1.776 0,-0.959 -0.423,-1.775 -1.268,-2.451 -0.845,-0.677 -2.142,-1.015 -3.888,-1.015 -1.128,0 -2.523,0.254 -4.185,0.761 -1.662,0.508 -3.226,1.634 -4.691,3.382 l -7.016,-7.017 c 1.803,-1.803 4.185,-3.325 7.143,-4.564 2.959,-1.239 6.156,-1.859 9.594,-1.859 2.254,0 4.282,0.337 6.086,1.013 1.803,0.677 3.325,1.634 4.565,2.874 1.239,1.24 2.183,2.677 2.832,4.312 0.647,1.634 0.972,3.436 0.972,5.41 0,2.253 -0.621,4.197 -1.86,5.832" /></g></g><g
       id="g168"><g
         clip-path="url(#clipPath174)"
         id="g170"><g
           id="g176"><g
             id="g182"><path
               id="path190"
               style="fill:url(#linearGradient188);stroke:none"
               d="M 0,0 H 1440 V 900 H 0 Z" /></g></g></g></g><g
       id="g192"><g
         clip-path="url(#clipPath198)"
         id="g194"><g
           id="g200"><g
             id="g206"><path
               id="path214"
               style="fill:url(#linearGradient212);stroke:none"
               d="M 0,0 H 1440 V 900 H 0 Z" /></g></g></g></g><g
       id="g216"><g
         clip-path="url(#clipPath222)"
         id="g218"><g
           id="g224"><g
             id="g230"><path
               id="path238"
               style="fill:url(#linearGradient236);stroke:none"
               d="M 0,0 H 1440 V 900 H 0 Z" /></g></g></g></g><g
       id="g240"><g
         clip-path="url(#clipPath246)"
         id="g242"><g
           id="g248"><g
             id="g254"><path
               id="path262"
               style="fill:url(#linearGradient260);stroke:none"
               d="M 0,0 H 1440 V 900 H 0 Z" /></g></g></g></g><g
       id="g264"><g
         clip-path="url(#clipPath270)"
         id="g266"><g
           id="g272"><g
             id="g278"><path
               id="path286"
               style="fill:url(#linearGradient284);stroke:none"
               d="M 0,0 H 1440 V 900 H 0 Z" /></g></g></g></g><g
       id="g288"><g
         clip-path="url(#clipPath294)"
         id="g290"><g
           id="g296"><g
             id="g302"><path
               id="path310"
               style="fill:url(#linearGradient308);stroke:none"
               d="M 0,0 H 1440 V 900 H 0 Z" /></g></g></g></g><g
       id="g312"><g
         clip-path="url(#clipPath318)"
         id="g314"><g
           id="g320"><g
             id="g326"><path
               id="path334"
               style="fill:url(#linearGradient332);stroke:none"
               d="M 0,0 H 1440 V 900 H 0 Z" /></g></g></g></g><g
       id="g336"><g
         clip-path="url(#clipPath342)"
         id="g338"><g
           id="g344"><g
             id="g350"><path
               id="path358"
               style="fill:url(#linearGradient356);stroke:none"
               d="M 0,0 H 1440 V 900 H 0 Z" /></g></g></g></g><g
       id="g360"><g
         clip-path="url(#clipPath366)"
         id="g362"><g
           id="g368"><g
             id="g374"><path
               id="path382"
               style="fill:url(#linearGradient380);stroke:none"
               d="M 0,0 H 1440 V 900 H 0 Z" /></g></g></g></g><g
       id="g384"><g
         clip-path="url(#clipPath390)"
         id="g386"><g
           id="g392"><g
             id="g398"><path
               id="path406"
               style="fill:url(#linearGradient404);stroke:none"
               d="M 0,0 H 1440 V 900 H 0 Z" /></g></g></g></g><g
       id="g408"><g
         clip-path="url(#clipPath414)"
         id="g410"><g
           id="g416"><g
             id="g422"><path
               id="path430"
               style="fill:url(#linearGradient428);stroke:none"
               d="M 0,0 H 1440 V 900 H 0 Z" /></g></g></g></g><g
       id="g432"><g
         clip-path="url(#clipPath438)"
         id="g434"><g
           id="g440"><g
             id="g446"><path
               id="path454"
               style="fill:url(#linearGradient452);stroke:none"
               d="M 0,0 H 1440 V 900 H 0 Z" /></g></g></g></g><g
       id="g456"><g
         clip-path="url(#clipPath462)"
         id="g458"><g
           id="g464"><g
             id="g470"><path
               id="path478"
               style="fill:url(#linearGradient476);stroke:none"
               d="M 0,0 H 1440 V 900 H 0 Z" /></g></g></g></g><g
       id="g480"><g
         clip-path="url(#clipPath486)"
         id="g482"><g
           id="g488"><g
             id="g494"><path
               id="path502"
               style="fill:url(#linearGradient500);stroke:none"
               d="M 0,0 H 1440 V 900 H 0 Z" /></g></g></g></g><g
       id="g504"><g
         clip-path="url(#clipPath510)"
         id="g506"><g
           id="g512"><g
             id="g518"><path
               id="path526"
               style="fill:url(#linearGradient524);stroke:none"
               d="M 0,0 H 1440 V 900 H 0 Z" /></g></g></g></g></g></svg>